<svg width="65" height="61" viewBox="0 0 65 61" fill="none" xmlns="http://www.w3.org/2000/svg">
<path fill-rule="evenodd" clip-rule="evenodd" d="M21.6661 0.85083C30.6405 0.85083 37.9156 8.05895 37.9156 16.9506C37.9156 25.8422 30.6405 33.0503 21.6661 33.0503C12.6917 33.0503 5.4165 25.8422 5.4165 16.9506C5.4165 8.05895 12.6917 0.85083 21.6661 0.85083ZM2.70826 60.1491C1.21253 60.1491 0 58.9477 0 57.4657V51.8333C0 44.4237 6.06263 38.417 13.5413 38.417H29.7927C37.2713 38.417 43.3341 44.4237 43.3341 51.8333V57.4657C43.3341 58.9477 42.1216 60.1491 40.6258 60.1491C39.13 60.1491 4.20398 60.1491 2.70826 60.1491ZM37.2352 31.8787C41.0096 28.0155 43.3322 22.7518 43.3322 16.9506C43.3322 11.1494 41.0096 5.88563 37.2352 2.02241C39.1181 1.26688 41.1759 0.85083 43.3322 0.85083C52.3066 0.85083 59.5817 8.05895 59.5817 16.9506C59.5817 25.8422 52.3066 33.0503 43.3322 33.0503C41.1759 33.0503 39.1181 32.6343 37.2352 31.8787ZM43.0603 38.417H51.4589C58.9374 38.417 65 44.4237 65 51.8333V57.4657C65 58.9477 63.7875 60.1491 62.2919 60.1491H48.2882C48.5875 59.3097 48.7505 58.4065 48.7505 57.4657V51.8333C48.7505 46.5777 46.572 41.8262 43.0603 38.417Z" fill="#08324D"/>
</svg>
