<svg width="65" height="77" viewBox="0 0 65 77" fill="none" xmlns="http://www.w3.org/2000/svg">
<path d="M62.2313 34.6835C57.5266 32.7754 54.032 29.3248 50.5326 23.7482C46.4621 17.2608 46.1639 11.851 44.3496 8.17502C42.438 4.29822 38.012 0.476074 32.5194 0.476074C27.028 0.476074 22.6008 4.29822 20.6892 8.17502C18.875 11.851 18.5754 18.2788 15.5242 24.6371C12.6749 30.5741 7.13115 33.5402 2.80741 34.6835C-0.964675 35.6831 0.155545 38.9707 0.155545 38.9707L3.47343 62.9599C4.54864 70.7353 11.1944 76.5239 19.043 76.5239H45.9959C53.8445 76.5239 60.4901 70.7353 61.5667 62.9597L64.8834 38.9705C64.8834 38.9705 65.8476 36.1505 62.2313 34.6835ZM40.815 27.4545C40.815 30.0906 40.1501 32.5295 39.6521 33.5401C38.5126 35.8487 35.7948 36.847 32.5194 36.847C29.2441 36.847 26.5265 35.8485 25.3866 33.5401C24.8899 32.5295 24.2238 30.0906 24.2238 27.4545V19.075C24.2238 16.44 24.8898 14 25.3866 12.9919C26.5263 10.6822 29.244 8.197 32.5194 8.197C35.7948 8.197 38.5124 10.6822 39.6521 12.9919C40.1501 14.0001 40.815 16.4402 40.815 19.075V27.4545Z" fill="#08324D"/>
</svg>
