<svg width="65" height="74" viewBox="0 0 65 74" fill="none" xmlns="http://www.w3.org/2000/svg">
<path d="M48.7241 22.7258C52.9157 18.5546 55.5153 12.7866 55.5153 6.4218C55.5155 3.39291 53.0598 0.937378 50.0309 0.937378H14.9723C11.9433 0.937378 9.48775 3.39291 9.48775 6.42168C9.48775 12.7866 12.0874 18.5562 16.2773 22.7256C6.56528 28.3525 0 38.8354 0 50.8461C0 73.7079 23.6108 73.7079 32.5 73.7079C41.3892 73.7079 65 73.7079 65 50.8461C65.0015 38.8356 58.4376 28.3509 48.7241 22.7258ZM44.0609 53.9769C44.0609 59.1697 40.5352 62.3287 35.3049 62.9773V65.0644C35.3049 66.6125 34.0497 67.8677 32.5014 67.8677C30.9502 67.8677 29.6949 66.6126 29.6949 65.0644V62.7452C27.0358 62.2438 24.4457 61.2126 22.1627 59.5753C21.4466 59.0722 20.942 58.1446 20.942 57.1342C20.942 55.448 22.288 54.1444 23.9756 54.1444C24.8139 54.1444 25.4046 54.4389 25.8247 54.7336C28.0592 56.3772 30.5005 57.3864 33.3633 57.3864C36.0161 57.3864 37.6206 56.3335 37.6206 54.6082V54.5236C37.6206 52.8832 36.6083 52.04 31.6803 50.7771C25.7463 49.2619 21.912 47.6182 21.912 41.764V41.681C21.912 37.1227 25.0491 33.9029 29.6982 33.0442V30.8471C29.6982 29.2991 30.9533 28.0424 32.5048 28.0424C34.0529 28.0424 35.3081 29.2974 35.3081 30.8471V33.0659C37.6225 33.4436 39.7206 34.2271 41.5759 35.4084C42.295 35.8268 43.0111 36.7122 43.0111 37.9767C43.0111 39.6596 41.665 40.9664 39.9807 40.9664C39.3443 40.9664 38.8416 40.7989 38.3371 40.5041C36.1889 39.2411 34.1659 38.5235 32.1428 38.5235C29.6609 38.5235 28.3539 39.6595 28.3539 41.0918V41.178C28.3539 43.1132 29.6184 43.7464 34.714 45.0499C40.6905 46.6091 44.0641 48.7556 44.0641 53.8922V53.9769H44.0609Z" fill="#08324D"/>
</svg>
