<svg width="32" height="32" viewBox="0 0 32 32" fill="none" xmlns="http://www.w3.org/2000/svg">
<path d="M24.292 0.291712C24.3849 0.198586 24.4953 0.1247 24.6168 0.0742873C24.7383 0.0238744 24.8685 -0.0020752 25 -0.0020752C25.1316 -0.0020752 25.2618 0.0238744 25.3833 0.0742873C25.5048 0.1247 25.6152 0.198586 25.708 0.291712L31.708 6.29171C31.8012 6.3846 31.8751 6.49496 31.9255 6.61645C31.9759 6.73794 32.0018 6.86818 32.0018 6.99971C32.0018 7.13125 31.9759 7.26149 31.9255 7.38298C31.8751 7.50447 31.8012 7.61482 31.708 7.70771L11.708 27.7077C11.6121 27.803 11.4978 27.8779 11.372 27.9277L1.37204 31.9277C1.19031 32.0005 0.991231 32.0183 0.799479 31.9789C0.607726 31.9396 0.431734 31.8448 0.293321 31.7064C0.154908 31.568 0.0601609 31.392 0.020826 31.2003C-0.0185089 31.0085 -0.00070194 30.8094 0.0720394 30.6277L4.07204 20.6277C4.1219 20.502 4.19674 20.3877 4.29204 20.2917L24.292 0.291712ZM22.414 4.99971L27 9.58571L29.586 6.99971L25 2.41371L22.414 4.99971ZM25.586 10.9997L21 6.41371L8.00004 19.4137V19.9997H9.00004C9.26526 19.9997 9.51961 20.1051 9.70715 20.2926C9.89468 20.4801 10 20.7345 10 20.9997V21.9997H11C11.2653 21.9997 11.5196 22.1051 11.7071 22.2926C11.8947 22.4801 12 22.7345 12 22.9997V23.9997H12.586L25.586 10.9997ZM6.06404 21.3497L5.85204 21.5617L2.79604 29.2037L10.438 26.1477L10.65 25.9357C10.4593 25.8644 10.2948 25.7366 10.1787 25.5694C10.0625 25.4021 10.0002 25.2034 10 24.9997V23.9997H9.00004C8.73482 23.9997 8.48047 23.8944 8.29293 23.7068C8.1054 23.5193 8.00004 23.2649 8.00004 22.9997V21.9997H7.00004C6.7964 21.9996 6.59766 21.9372 6.43039 21.8211C6.26313 21.7049 6.13531 21.5405 6.06404 21.3497Z" fill="#08324D"/>
</svg>
