<svg width="40" height="40" viewBox="0 0 40 40" fill="none" xmlns="http://www.w3.org/2000/svg">
<path d="M30.365 0.364793C30.4811 0.248385 30.6191 0.156028 30.771 0.0930117C30.9228 0.0299956 31.0856 -0.00244141 31.25 -0.00244141C31.4145 -0.00244141 31.5773 0.0299956 31.7291 0.0930117C31.881 0.156028 32.0189 0.248385 32.135 0.364793L39.635 7.86479C39.7514 7.98091 39.8438 8.11885 39.9068 8.27071C39.9698 8.42257 40.0023 8.58537 40.0023 8.74979C40.0023 8.91421 39.9698 9.07701 39.9068 9.22888C39.8438 9.38074 39.7514 9.51868 39.635 9.63479L14.635 34.6348C14.5151 34.7539 14.3722 34.8475 14.215 34.9098L1.71503 39.9098C1.48787 40.0007 1.23902 40.023 0.999333 39.9738C0.759642 39.9246 0.539652 39.8062 0.366636 39.6332C0.19362 39.4602 0.0751858 39.2402 0.0260172 39.0005C-0.0231514 38.7608 -0.000892686 38.512 0.090034 38.2848L5.09003 25.7848C5.15236 25.6276 5.24591 25.4848 5.36503 25.3648L30.365 0.364793ZM28.0175 6.24979L33.75 11.9823L36.9825 8.74979L31.25 3.01729L28.0175 6.24979ZM31.9825 13.7498L26.25 8.01729L10 24.2673V24.9998H11.25C11.5816 24.9998 11.8995 25.1315 12.1339 25.3659C12.3683 25.6003 12.5 25.9183 12.5 26.2498V27.4998H13.75C14.0816 27.4998 14.3995 27.6315 14.6339 27.8659C14.8683 28.1003 15 28.4183 15 28.7498V29.9998H15.7325L31.9825 13.7498ZM7.58003 26.6873L7.31503 26.9523L3.49503 36.5048L13.0475 32.6848L13.3125 32.4198C13.0741 32.3307 12.8685 32.1709 12.7233 31.9619C12.5781 31.7528 12.5002 31.5043 12.5 31.2498V29.9998H11.25C10.9185 29.9998 10.6006 29.8681 10.3661 29.6337C10.1317 29.3993 10 29.0813 10 28.7498V27.4998H8.75003C8.49548 27.4996 8.24706 27.4217 8.03798 27.2765C7.8289 27.1313 7.66913 26.9257 7.58003 26.6873Z" fill="white"/>
</svg>
