<svg width="65" height="66" viewBox="0 0 65 66" fill="none" xmlns="http://www.w3.org/2000/svg">
<g clip-path="url(#clip0_615_484)">
<path fill-rule="evenodd" clip-rule="evenodd" d="M27.0833 19.781H56.875C61.3624 19.781 65 23.4187 65 27.906V57.6976C65 62.1851 61.3624 65.8226 56.875 65.8226H27.0833C22.596 65.8226 18.9583 62.1851 18.9583 57.6976V27.906C18.9583 23.4187 22.596 19.781 27.0833 19.781ZM46.0417 14.3643H27.0833C19.6045 14.3643 13.5417 20.4271 13.5417 27.906V46.8643H8.125C3.6377 46.8643 0 43.2267 0 38.7393V8.94763C0 4.46033 3.6377 0.822632 8.125 0.822632H37.9167C42.4041 0.822632 46.0417 4.46033 46.0417 8.94763V14.3643Z" fill="#08324D"/>
</g>
<defs>
<clipPath id="clip0_615_484">
<rect width="65" height="65" fill="white" transform="translate(0 0.822632)"/>
</clipPath>
</defs>
</svg>
