<svg width="65" height="65" viewBox="0 0 65 65" fill="none" xmlns="http://www.w3.org/2000/svg">
<path d="M12.1008 27.8033C12.1221 27.9967 12.1438 28.1922 12.1658 28.3896L12.5061 31.4522C12.7449 33.6029 12.9521 35.4681 13.3135 36.9566C13.7022 38.5578 14.3432 40.0664 15.6797 41.2626C17.0163 42.4589 18.5863 42.9293 20.2207 43.1387C21.74 43.3337 23.6166 43.3334 25.7806 43.3334H40.2795C41.7631 43.3334 43.0726 43.3334 44.1659 43.2224C45.3508 43.1021 46.5019 42.8356 47.6088 42.1691C48.7157 41.5026 49.49 40.6099 50.1508 39.6192C50.7604 38.7049 51.3731 37.5476 52.0669 36.2368L58.8093 23.5012C61.2016 18.9824 57.9259 13.5417 52.8128 13.5417H25.4555C22.7938 13.5416 20.5166 13.5414 18.7142 13.7933C17.8019 13.9208 16.908 14.1248 16.0696 14.4727L15.68 10.9664C15.3289 7.80699 12.6584 5.41675 9.47949 5.41675H8.12533C6.62957 5.41675 5.41699 6.6293 5.41699 8.12508C5.41699 9.62084 6.62957 10.8334 8.12533 10.8334H9.47949C9.89834 10.8334 10.2502 11.1483 10.2964 11.5646L12.1008 27.8033Z" fill="#1E2544"/>
<path fill-rule="evenodd" clip-rule="evenodd" d="M37.917 52.8126C37.917 49.0732 40.9484 46.0417 44.6878 46.0417C48.4272 46.0417 51.4587 49.0732 51.4587 52.8126C51.4587 56.552 48.4272 59.5834 44.6878 59.5834C40.9484 59.5834 37.917 56.552 37.917 52.8126Z" fill="#1E2544"/>
<path fill-rule="evenodd" clip-rule="evenodd" d="M13.542 52.8126C13.542 49.0732 16.5734 46.0417 20.3128 46.0417C24.0522 46.0417 27.0837 49.0732 27.0837 52.8126C27.0837 56.552 24.0522 59.5834 20.3128 59.5834C16.5734 59.5834 13.542 56.552 13.542 52.8126Z" fill="#1E2544"/>
</svg>
