<svg width="36" height="40" viewBox="0 0 36 40" fill="none" xmlns="http://www.w3.org/2000/svg">
<path d="M14.25 2.5H21.75C22.0815 2.5 22.3995 2.6317 22.6339 2.86612C22.8683 3.10054 23 3.41848 23 3.75V6.25H13V3.75C13 3.41848 13.1317 3.10054 13.3661 2.86612C13.6005 2.6317 13.9185 2.5 14.25 2.5ZM25.5 6.25V3.75C25.5 2.75544 25.1049 1.80161 24.4017 1.09835C23.6984 0.395088 22.7446 0 21.75 0L14.25 0C13.2554 0 12.3016 0.395088 11.5983 1.09835C10.8951 1.80161 10.5 2.75544 10.5 3.75V6.25H4.265C4.25667 6.24993 4.24833 6.24993 4.24 6.25H1.75C1.41848 6.25 1.10054 6.3817 0.866116 6.61612C0.631696 6.85054 0.5 7.16848 0.5 7.5C0.5 7.83152 0.631696 8.14946 0.866116 8.38388C1.10054 8.6183 1.41848 8.75 1.75 8.75H3.095L5.2275 35.4C5.32806 36.653 5.89688 37.8221 6.82069 38.6746C7.74449 39.527 8.95548 40.0003 10.2125 40H25.7875C27.0445 40.0003 28.2555 39.527 29.1793 38.6746C30.1031 37.8221 30.6719 36.653 30.7725 35.4L32.905 8.75H34.25C34.5815 8.75 34.8995 8.6183 35.1339 8.38388C35.3683 8.14946 35.5 7.83152 35.5 7.5C35.5 7.16848 35.3683 6.85054 35.1339 6.61612C34.8995 6.3817 34.5815 6.25 34.25 6.25H31.7625C31.7542 6.24993 31.7458 6.24993 31.7375 6.25H25.5ZM30.395 8.75L28.28 35.2C28.2297 35.8265 27.9453 36.4111 27.4834 36.8373C27.0215 37.2635 26.416 37.5001 25.7875 37.5H10.2125C9.58399 37.5001 8.97849 37.2635 8.51659 36.8373C8.05469 36.4111 7.77028 35.8265 7.72 35.2L5.605 8.75H30.395ZM11.6775 11.25C12.0083 11.2309 12.3332 11.3439 12.5807 11.5642C12.8283 11.7846 12.9782 12.0942 12.9975 12.425L14.2475 33.675C14.2606 34.0019 14.145 34.321 13.9255 34.5637C13.706 34.8064 13.4001 34.9533 13.0735 34.9729C12.7469 34.9926 12.4256 34.8833 12.1786 34.6687C11.9316 34.4541 11.7786 34.1512 11.7525 33.825L10.5 12.575C10.4899 12.4108 10.5122 12.2462 10.5658 12.0906C10.6194 11.9351 10.7032 11.7916 10.8124 11.6685C10.9215 11.5454 11.0539 11.4451 11.202 11.3733C11.35 11.3014 11.5107 11.2596 11.675 11.25H11.6775ZM24.3225 11.25C24.4868 11.2596 24.6475 11.3014 24.7955 11.3733C24.9436 11.4451 25.076 11.5454 25.1851 11.6685C25.2943 11.7916 25.3781 11.9351 25.4317 12.0906C25.4853 12.2462 25.5076 12.4108 25.4975 12.575L24.2475 33.825C24.2408 33.9911 24.2011 34.1542 24.1306 34.3048C24.0601 34.4554 23.9603 34.5903 23.837 34.7019C23.7137 34.8134 23.5694 34.8992 23.4126 34.9543C23.2557 35.0093 23.0894 35.0326 22.9235 35.0226C22.7575 35.0126 22.5953 34.9696 22.4461 34.8962C22.297 34.8227 22.164 34.7202 22.055 34.5947C21.9459 34.4692 21.863 34.3233 21.8111 34.1653C21.7591 34.0074 21.7392 33.8407 21.7525 33.675L23.0025 12.425C23.0218 12.0942 23.1717 11.7846 23.4193 11.5642C23.6668 11.3439 23.9917 11.2309 24.3225 11.25ZM18 11.25C18.3315 11.25 18.6495 11.3817 18.8839 11.6161C19.1183 11.8505 19.25 12.1685 19.25 12.5V33.75C19.25 34.0815 19.1183 34.3995 18.8839 34.6339C18.6495 34.8683 18.3315 35 18 35C17.6685 35 17.3505 34.8683 17.1161 34.6339C16.8817 34.3995 16.75 34.0815 16.75 33.75V12.5C16.75 12.1685 16.8817 11.8505 17.1161 11.6161C17.3505 11.3817 17.6685 11.25 18 11.25Z" fill="red"/>
</svg>
