<svg width="43" height="44" viewBox="0 0 43 44" fill="none" xmlns="http://www.w3.org/2000/svg">
<path d="M5.375 38.125C5.375 38.8703 5.633 39.5153 6.149 40.06C6.665 40.6046 7.31 40.8626 8.084 40.834H34.959C35.6757 40.834 36.3063 40.576 36.851 40.06C37.3957 39.544 37.6537 38.899 37.625 38.125C37.625 36.835 37.324 35.5306 36.722 34.212C36.12 32.8933 35.3317 31.718 34.357 30.686C33.3823 29.654 32.2643 28.6936 31.003 27.805C29.7417 26.9163 28.4517 26.2426 27.133 25.784C28.7097 24.8093 29.9567 23.505 30.874 21.871C31.7913 20.237 32.25 18.4883 32.25 16.625V13.959C32.25 10.9777 31.2037 8.44065 29.111 6.34798C27.0183 4.25532 24.4813 3.20898 21.5 3.20898C18.5187 3.20898 15.9817 4.25532 13.889 6.34798C11.7963 8.44065 10.75 10.9777 10.75 13.959V16.625C10.75 18.517 11.2087 20.2656 12.126 21.871C13.0433 23.4763 14.2903 24.7806 15.867 25.784C14.5197 26.2713 13.2297 26.945 11.997 27.805C10.7643 28.665 9.64633 29.6253 8.643 30.686C7.63967 31.7466 6.85133 32.922 6.278 34.212C5.70467 35.502 5.40367 36.8063 5.375 38.125Z" fill="#1E2544"/>
</svg>
