<svg width="65" height="61" viewBox="0 0 65 61" fill="none" xmlns="http://www.w3.org/2000/svg">
<path d="M64.3612 36.2119C63.4811 34.6495 61.8191 33.679 60.0238 33.679C59.1758 33.679 58.3338 33.9006 57.5891 34.3199L43.0967 42.4815C42.9075 42.588 42.771 42.7681 42.7191 42.979C42.4664 44.0108 41.8713 45.4514 40.4735 46.4546C38.9262 47.5649 36.8331 47.7962 34.2826 47.1422C34.2673 47.1383 34.2521 47.134 34.2387 47.1298L25.8784 44.5339C25.3729 44.377 25.0894 43.838 25.2464 43.3326C25.3721 42.9284 25.7404 42.6568 26.163 42.6568C26.259 42.6568 26.3552 42.6714 26.4482 42.7002L34.7649 45.2826C34.7782 45.2866 34.7918 45.2905 34.8054 45.294C36.7668 45.789 38.2985 45.6513 39.3537 44.8946C40.6868 43.938 40.9216 42.2565 40.9493 42.0095C40.9504 42.0016 40.9512 41.9938 40.9518 41.9858C40.9523 41.9817 40.9525 41.9795 40.9526 41.979C40.9528 41.9763 40.953 41.9737 40.9532 41.9713C40.9533 41.9695 40.9533 41.968 40.9535 41.9662C41.1122 39.8928 39.7742 37.9783 37.7696 37.4122L37.7328 37.401C37.6717 37.3811 31.5192 35.3716 27.5992 34.2531C27.1637 34.129 25.9636 33.8401 24.228 33.8401C21.8006 33.8401 18.1794 34.4152 14.7061 37.161L0.291575 48.8209C-0.0381624 49.0874 -0.0966389 49.5676 0.159261 49.9057L7.96404 60.2151C8.09059 60.3819 8.27841 60.4916 8.48596 60.5195C8.5207 60.5242 8.55544 60.5265 8.59035 60.5265C8.76264 60.5265 8.93143 60.4697 9.06951 60.3633L19.1226 52.6225C19.3485 52.4489 19.6513 52.3834 19.9289 52.4489L36.1661 56.286C37.3702 56.5705 38.6715 56.3869 39.7485 55.7798L62.4688 42.984C64.8575 41.6384 65.7063 38.6008 64.3612 36.2119Z" fill="#08324D"/>
<path d="M55.3313 0.118896H25.6567C24.6928 0.118896 23.9111 0.900387 23.9111 1.86446V9.80749C23.9111 10.7716 24.6928 11.5531 25.6567 11.5531H26.3087V28.4192C26.3087 29.3833 27.0902 30.1648 28.0542 30.1648H52.9331C53.8972 30.1648 54.6787 29.3833 54.6787 28.4192V11.5529H55.3312C56.2951 11.5529 57.0767 10.7714 57.0767 9.80731V1.86446C57.0769 0.900387 56.2952 0.118896 55.3313 0.118896ZM44.1658 15.7002H36.8219C36.0519 15.7002 35.4254 15.0737 35.4254 14.3037C35.4254 13.5338 36.0519 12.9073 36.8219 12.9073H44.1658C44.9358 12.9073 45.5623 13.5338 45.5623 14.3037C45.5623 15.0737 44.9358 15.7002 44.1658 15.7002ZM53.5858 8.06175H52.9333H28.0542H27.4023V3.61003H53.5858V8.06175Z" fill="#08324D"/>
</svg>
